<?xml version="1.0" encoding="utf-8"?>
<!-- Generator: Adobe Illustrator 19.2.0, SVG Export Plug-In . SVG Version: 6.00 Build 0)  -->
<svg version="1.1" id="Layer_1" xmlns="http://www.w3.org/2000/svg" xmlns:xlink="http://www.w3.org/1999/xlink" x="0px" y="0px"
	 viewBox="0 0 1918.8 1078.5" style="enable-background:new 0 0 1918.8 1078.5;" xml:space="preserve">
<style type="text/css">
	.st0{clip-path:url(#SVGID_2_);}
	.st1{clip-path:url(#SVGID_4_);}
	.st2{clip-path:url(#SVGID_6_);}
	.st3{fill:#164A9D;}
	.st4{opacity:0.4;fill:#0D3F8E;enable-background:new    ;}
	.st5{fill:url(#SVGID_7_);}
	.st6{fill:url(#SVGID_8_);}
	.st7{fill:url(#SVGID_9_);}
	.st8{fill:url(#SVGID_10_);}
	.st9{fill:url(#SVGID_11_);}
	.st10{fill:url(#SVGID_12_);}
	.st11{fill:url(#SVGID_13_);}
	.st12{fill:url(#SVGID_14_);}
	.st13{opacity:0.6;fill:url(#SVGID_15_);enable-background:new    ;}
</style>
<g>
	<defs>
		<rect id="SVGID_1_" width="1918.8" height="1078.5"/>
	</defs>
	<clipPath id="SVGID_2_">
		<use xlink:href="#SVGID_1_"  style="overflow:visible;"/>
	</clipPath>
	<g class="st0">
		<g>
			<defs>
				<rect id="SVGID_3_" x="-0.2" y="-1.5" width="1920" height="1080"/>
			</defs>
			<clipPath id="SVGID_4_">
				<use xlink:href="#SVGID_3_"  style="overflow:visible;"/>
			</clipPath>
			<g class="st1">
				<g>
					<g>
						<defs>
							<rect id="SVGID_5_" x="-1.2" y="-1.5" width="1931.4" height="1080"/>
						</defs>
						<clipPath id="SVGID_6_">
							<use xlink:href="#SVGID_5_"  style="overflow:visible;"/>
						</clipPath>
						<g class="st2">
							<rect x="512.9" y="-1.7" class="st3" width="1419.2" height="1081.6"/>
							<path class="st4" d="M814.2,18.9c0-5.7-0.2-13.7-0.6-19.4H530v283c6.6,0.4,13.2,0.7,19.9,0.7
								C695.8,283.2,814.1,165,814.2,18.9z"/>
							<path class="st4" d="M814.2,548.3c0-146.1-118.3-264.4-264.3-264.3c-6.7,0-13.3,0.2-19.9,0.7V812c6.6,0.4,13.2,0.7,19.9,0.7
								C695.8,812.7,814.2,694.4,814.2,548.3z"/>
							<path class="st4" d="M530,1079.8h284.3c0-145.9-118.4-267.2-264.4-267.2c-6.7,0-13.3,0.2-19.9,0.7L530,1079.8L530,1079.8z"/>
							<polygon class="st4" points="2154.8,360 1871.3,-178.6 1588,360 1871.3,360 							"/>
							<polygon class="st4" points="2154.8,724.4 1871.3,1263.2 1588,724.4 1871.3,724.4 							"/>
							<circle class="st4" cx="1392.7" cy="6.4" r="182.2"/>
							<circle class="st4" cx="1392.7" cy="1083.3" r="182.2"/>
							<circle class="st4" cx="1392.7" cy="542.2" r="182.2"/>
							<polygon class="st4" points="1022.6,94.3 822.8,94.3 1022.6,474.1 1222.5,94.3 							"/>
							<polygon class="st4" points="1022.6,1001.5 822.8,1001.5 1022.6,621.5 1222.5,1001.5 							"/>
							
								<linearGradient id="SVGID_7_" gradientUnits="userSpaceOnUse" x1="284.105" y1="-2316.5298" x2="284.105" y2="-1271.9337" gradientTransform="matrix(1 0 0 1 0 2330)">
								<stop  offset="0" style="stop-color:#3A4C95"/>
								<stop  offset="1" style="stop-color:#557DBD"/>
							</linearGradient>
							<rect x="0" y="-0.5" class="st5" width="568.3" height="1080.4"/>
							
								<linearGradient id="SVGID_8_" gradientUnits="userSpaceOnUse" x1="142.055" y1="-2323.5105" x2="142.055" y2="-1801.2123" gradientTransform="matrix(1 0 0 1 0 2330)">
								<stop  offset="0" style="stop-color:#3A4C95"/>
								<stop  offset="1" style="stop-color:#557DBD"/>
							</linearGradient>
							<rect x="0" y="-0.5" class="st6" width="284.2" height="540.2"/>
							
								<linearGradient id="SVGID_9_" gradientUnits="userSpaceOnUse" x1="142.055" y1="-1783.3313" x2="142.055" y2="-1261.0331" gradientTransform="matrix(1 0 0 1 0 2330)">
								<stop  offset="0" style="stop-color:#3A4C95"/>
								<stop  offset="1" style="stop-color:#557DBD"/>
							</linearGradient>
							<rect x="0" y="539.7" class="st7" width="284.2" height="540.2"/>
							
								<linearGradient id="SVGID_10_" gradientUnits="userSpaceOnUse" x1="142.055" y1="-1798.9677" x2="142.055" y2="-2302.5728" gradientTransform="matrix(1 0 0 1 0 2330)">
								<stop  offset="0" style="stop-color:#3A4C95"/>
								<stop  offset="1" style="stop-color:#F16724"/>
							</linearGradient>
							<polyline class="st8" points="0,-0.5 284.2,-0.5 284.2,539.7 							"/>
							
								<linearGradient id="SVGID_11_" gradientUnits="userSpaceOnUse" x1="142.055" y1="-1786.0037" x2="142.055" y2="-1252.1493" gradientTransform="matrix(1 0 0 1 0 2330)">
								<stop  offset="0" style="stop-color:#FDD40A"/>
								<stop  offset="1" style="stop-color:#F16724"/>
							</linearGradient>
							<polyline class="st9" points="0,1079.9 0,539.7 284.2,539.7 							"/>
							
								<linearGradient id="SVGID_12_" gradientUnits="userSpaceOnUse" x1="426.155" y1="-2063.8667" x2="426.155" y2="-2526.0908" gradientTransform="matrix(1 0 0 1 0 2330)">
								<stop  offset="0" style="stop-color:#3A4C95"/>
								<stop  offset="1" style="stop-color:#F16724"/>
							</linearGradient>
							<path class="st10" d="M548.4,283.2c6.7,0,13.3-0.3,19.9-0.7v-283H284.7c-0.4,5.7-0.6,13.7-0.6,19.4
								C284.2,165,402.5,283.2,548.4,283.2z"/>
							
								<linearGradient id="SVGID_13_" gradientUnits="userSpaceOnUse" x1="426.155" y1="-1549.2616" x2="426.155" y2="-2018.8374" gradientTransform="matrix(1 0 0 1 0 2330)">
								<stop  offset="0" style="stop-color:#3A4C95"/>
								<stop  offset="1" style="stop-color:#F16724"/>
							</linearGradient>
							<path class="st11" d="M548.4,812.7c6.7,0,13.3-0.3,19.9-0.7V284.7c-6.6-0.5-13.2-0.7-19.9-0.7
								c-146-0.1-264.3,118.2-264.3,264.3S402.5,812.7,548.4,812.7z"/>
							
								<linearGradient id="SVGID_14_" gradientUnits="userSpaceOnUse" x1="426.105" y1="-1034.407" x2="426.105" y2="-1482.7433" gradientTransform="matrix(1 0 0 1 0 2330)">
								<stop  offset="0" style="stop-color:#3A4C95"/>
								<stop  offset="1" style="stop-color:#F16724"/>
							</linearGradient>
							<path class="st12" d="M568.3,813.3c-6.6-0.5-13.2-0.7-19.9-0.7c-146,0-264.4,121.3-264.4,267.2h284.3V813.3L568.3,813.3z"/>
							
								<linearGradient id="SVGID_15_" gradientUnits="userSpaceOnUse" x1="1122.5049" y1="636.9076" x2="1122.505" y2="1082.3993" gradientTransform="matrix(1 0 0 -1 0 1077.0059)">
								<stop  offset="0" style="stop-color:#164A9D"/>
								<stop  offset="1" style="stop-color:#557DBD"/>
							</linearGradient>
							<polyline class="st13" points="1022.6,474.1 1222.5,94.3 1022.6,94.3 							"/>
						</g>
					</g>
				</g>
			</g>
		</g>
	</g>
</g>
</svg>
