<?xml version="1.0" encoding="utf-8"?>
<!-- Generator: Adobe Illustrator 19.2.0, SVG Export Plug-In . SVG Version: 6.00 Build 0)  -->
<svg version="1.1" id="Layer_1" xmlns="http://www.w3.org/2000/svg" xmlns:xlink="http://www.w3.org/1999/xlink" x="0px" y="0px"
	 viewBox="0 0 1920 1080" style="enable-background:new 0 0 1920 1080;" xml:space="preserve">
<style type="text/css">
	.st0{clip-path:url(#SVGID_2_);}
	.st1{clip-path:url(#SVGID_4_);}
	.st2{fill:#164A9D;}
	.st3{opacity:0.4;fill:#0D3F8E;enable-background:new    ;}
	.st4{fill:url(#SVGID_5_);}
	.st5{fill:url(#SVGID_6_);}
	.st6{fill:url(#SVGID_7_);}
	.st7{fill:url(#SVGID_8_);}
	.st8{fill:url(#SVGID_9_);}
	.st9{fill:url(#SVGID_10_);}
	.st10{fill:url(#SVGID_11_);}
	.st11{fill:url(#SVGID_12_);}
	.st12{opacity:0.6;fill:url(#SVGID_13_);enable-background:new    ;}
</style>
<g>
	<defs>
		<rect id="SVGID_1_" width="1920" height="1080"/>
	</defs>
	<clipPath id="SVGID_2_">
		<use xlink:href="#SVGID_1_"  style="overflow:visible;"/>
	</clipPath>
	<g class="st0">
		<g>
			<defs>
				<rect id="SVGID_3_" x="-1" width="1931.4" height="1080"/>
			</defs>
			<clipPath id="SVGID_4_">
				<use xlink:href="#SVGID_3_"  style="overflow:visible;"/>
			</clipPath>
			<g class="st1">
				<rect x="513.1" y="-0.2" class="st2" width="1419.2" height="1081.6"/>
				<path class="st3" d="M814.4,20.4c0-5.7-0.2-13.7-0.6-19.4H530.2v283c6.6,0.4,13.2,0.7,19.9,0.7
					C696,284.7,814.3,166.5,814.4,20.4z"/>
				<path class="st3" d="M814.4,549.8c0-146.1-118.3-264.4-264.3-264.3c-6.7,0-13.3,0.2-19.9,0.7v527.3c6.6,0.4,13.2,0.7,19.9,0.7
					C696,814.2,814.4,695.9,814.4,549.8z"/>
				<path class="st3" d="M530.2,1081.3h284.3c0-145.9-118.4-267.2-264.4-267.2c-6.7,0-13.3,0.2-19.9,0.7V1081.3z"/>
				<polygon class="st3" points="2155,361.5 1871.5,-177.1 1588.2,361.5 1871.5,361.5 				"/>
				<polygon class="st3" points="2155,725.9 1871.5,1264.7 1588.2,725.9 1871.5,725.9 				"/>
				<circle class="st3" cx="1392.9" cy="7.9" r="182.2"/>
				<circle class="st3" cx="1392.9" cy="1084.8" r="182.2"/>
				<circle class="st3" cx="1392.9" cy="543.7" r="182.2"/>
				<polygon class="st3" points="1022.8,95.8 823,95.8 1022.8,475.6 1222.7,95.8 				"/>
				<polygon class="st3" points="1022.8,1003 823,1003 1022.8,623 1222.7,1003 				"/>
				
					<linearGradient id="SVGID_5_" gradientUnits="userSpaceOnUse" x1="284.3422" y1="2365.0327" x2="284.3422" y2="1320.4366" gradientTransform="matrix(1 0 0 -1 0 2380)">
					<stop  offset="0" style="stop-color:#3A4C95"/>
					<stop  offset="1" style="stop-color:#557DBD"/>
				</linearGradient>
				<rect x="0.2" y="1" class="st4" width="568.3" height="1080.4"/>
				
					<linearGradient id="SVGID_6_" gradientUnits="userSpaceOnUse" x1="142.2923" y1="2372.0134" x2="142.2923" y2="1849.7152" gradientTransform="matrix(1 0 0 -1 0 2380)">
					<stop  offset="0" style="stop-color:#3A4C95"/>
					<stop  offset="1" style="stop-color:#557DBD"/>
				</linearGradient>
				<rect x="0.2" y="1" class="st5" width="284.2" height="540.2"/>
				
					<linearGradient id="SVGID_7_" gradientUnits="userSpaceOnUse" x1="142.2923" y1="1831.8342" x2="142.2923" y2="1309.536" gradientTransform="matrix(1 0 0 -1 0 2380)">
					<stop  offset="0" style="stop-color:#3A4C95"/>
					<stop  offset="1" style="stop-color:#557DBD"/>
				</linearGradient>
				<rect x="0.2" y="541.2" class="st6" width="284.2" height="540.2"/>
				
					<linearGradient id="SVGID_8_" gradientUnits="userSpaceOnUse" x1="142.2923" y1="1847.4706" x2="142.2923" y2="2351.0757" gradientTransform="matrix(1 0 0 -1 0 2380)">
					<stop  offset="0" style="stop-color:#3A4C95"/>
					<stop  offset="1" style="stop-color:#F16724"/>
				</linearGradient>
				<polyline class="st7" points="0.2,1 284.4,1 284.4,541.2 				"/>
				
					<linearGradient id="SVGID_9_" gradientUnits="userSpaceOnUse" x1="142.2923" y1="1834.5066" x2="142.2923" y2="1300.6522" gradientTransform="matrix(1 0 0 -1 0 2380)">
					<stop  offset="0" style="stop-color:#FDD40A"/>
					<stop  offset="1" style="stop-color:#F16724"/>
				</linearGradient>
				<polyline class="st8" points="0.2,1081.4 0.2,541.2 284.4,541.2 				"/>
				
					<linearGradient id="SVGID_10_" gradientUnits="userSpaceOnUse" x1="426.3923" y1="2112.3696" x2="426.3923" y2="2574.5938" gradientTransform="matrix(1 0 0 -1 0 2380)">
					<stop  offset="0" style="stop-color:#3A4C95"/>
					<stop  offset="1" style="stop-color:#F16724"/>
				</linearGradient>
				<path class="st9" d="M548.6,284.7c6.7,0,13.3-0.3,19.9-0.7V1H284.9c-0.4,5.7-0.6,13.7-0.6,19.4
					C284.4,166.5,402.7,284.7,548.6,284.7z"/>
				
					<linearGradient id="SVGID_11_" gradientUnits="userSpaceOnUse" x1="426.3923" y1="1597.7645" x2="426.3923" y2="2067.3403" gradientTransform="matrix(1 0 0 -1 0 2380)">
					<stop  offset="0" style="stop-color:#3A4C95"/>
					<stop  offset="1" style="stop-color:#F16724"/>
				</linearGradient>
				<path class="st10" d="M548.6,814.2c6.7,0,13.3-0.3,19.9-0.7V286.2c-6.6-0.5-13.2-0.7-19.9-0.7c-146-0.1-264.3,118.2-264.3,264.3
					S402.7,814.2,548.6,814.2z"/>
				
					<linearGradient id="SVGID_12_" gradientUnits="userSpaceOnUse" x1="426.3422" y1="1082.9099" x2="426.3422" y2="1531.2462" gradientTransform="matrix(1 0 0 -1 0 2380)">
					<stop  offset="0" style="stop-color:#3A4C95"/>
					<stop  offset="1" style="stop-color:#F16724"/>
				</linearGradient>
				<path class="st11" d="M568.5,814.8c-6.6-0.5-13.2-0.7-19.9-0.7c-146,0-264.4,121.3-264.4,267.2h284.3L568.5,814.8L568.5,814.8z"
					/>
				<linearGradient id="SVGID_13_" gradientUnits="userSpaceOnUse" x1="1122.7422" y1="441.5953" x2="1122.7423" y2="-3.8964">
					<stop  offset="0" style="stop-color:#164A9D"/>
					<stop  offset="1" style="stop-color:#557DBD"/>
				</linearGradient>
				<polyline class="st12" points="1022.8,475.6 1222.7,95.8 1022.8,95.8 				"/>
			</g>
		</g>
	</g>
</g>
</svg>
