<?xml version="1.0" encoding="utf-8"?>
<!-- Generator: Adobe Illustrator 19.2.0, SVG Export Plug-In . SVG Version: 6.00 Build 0)  -->
<svg version="1.1" id="Layer_1" xmlns="http://www.w3.org/2000/svg" xmlns:xlink="http://www.w3.org/1999/xlink" x="0px" y="0px"
	 viewBox="0 0 1920 1080" style="enable-background:new 0 0 1920 1080;" xml:space="preserve">
<style type="text/css">
	.st0{clip-path:url(#SVGID_2_);}
	.st1{fill:#EA672D;}
	.st2{fill:url(#SVGID_3_);}
	.st3{fill:url(#SVGID_4_);}
	.st4{fill:url(#SVGID_5_);}
	.st5{fill:url(#SVGID_6_);}
	.st6{fill:url(#SVGID_7_);}
	.st7{fill:url(#SVGID_8_);}
	.st8{fill:url(#SVGID_9_);}
	.st9{fill:url(#SVGID_10_);}
	.st10{fill:url(#SVGID_11_);}
	.st11{fill:url(#SVGID_12_);}
	.st12{opacity:0.5;fill:#DD5A31;enable-background:new    ;}
	.st13{fill:url(#SVGID_13_);}
	.st14{opacity:0.6;fill:url(#SVGID_14_);enable-background:new    ;}
</style>
<g>
	<defs>
		<rect id="SVGID_1_" width="1920" height="1080"/>
	</defs>
	<clipPath id="SVGID_2_">
		<use xlink:href="#SVGID_1_"  style="overflow:visible;"/>
	</clipPath>
	<g class="st0">
		<rect x="-4.5" y="-0.2" class="st1" width="1927" height="1081.6"/>
		
			<linearGradient id="SVGID_3_" gradientUnits="userSpaceOnUse" x1="1498.2999" y1="313.3739" x2="1498.2999" y2="-61.3826" gradientTransform="matrix(1 0 0 -1 0 1073.0405)">
			<stop  offset="0" style="stop-color:#FDD40A"/>
			<stop  offset="1" style="stop-color:#F16724"/>
		</linearGradient>
		<rect x="1356.2" y="798" class="st2" width="284.2" height="281.2"/>
		<linearGradient id="SVGID_4_" gradientUnits="userSpaceOnUse" x1="1502.2999" y1="1162" x2="1502.3" y2="751.9531">
			<stop  offset="0" style="stop-color:#FDD40A"/>
			<stop  offset="1" style="stop-color:#F16724"/>
		</linearGradient>
		<path class="st3" d="M1648.4,1084V810.4c-6.8-0.4-13.6-0.7-20.5-0.7c-150,0-271.7,121.6-271.7,271.8c0,0.9,0,1.7,0,2.6
			L1648.4,1084L1648.4,1084z"/>
		<linearGradient id="SVGID_5_" gradientUnits="userSpaceOnUse" x1="1498.2999" y1="304.5209" x2="1498.2999" y2="-16.0076">
			<stop  offset="0" style="stop-color:#FDD40A"/>
			<stop  offset="1" style="stop-color:#F16724"/>
		</linearGradient>
		<rect x="1356.2" y="1" class="st4" width="284.2" height="271.6"/>
		<linearGradient id="SVGID_6_" gradientUnits="userSpaceOnUse" x1="1502.2999" y1="-68.0848" x2="1502.3" y2="184.0283">
			<stop  offset="0" style="stop-color:#FDD40A"/>
			<stop  offset="1" style="stop-color:#F16724"/>
		</linearGradient>
		<path class="st5" d="M1356.2-3.7c0,0.6,0,1.2,0,1.8c0,150.2,121.7,271.8,271.7,271.8c6.9,0,13.7-0.3,20.5-0.7V-3.7H1356.2z"/>
		<linearGradient id="SVGID_7_" gradientUnits="userSpaceOnUse" x1="1784.4" y1="251.7443" x2="1784.4" y2="13.5084">
			<stop  offset="0" style="stop-color:#3A4C95"/>
			<stop  offset="1" style="stop-color:#F16724"/>
		</linearGradient>
		<rect x="1640.3" y="2.1" class="st6" width="288.2" height="269"/>
		<linearGradient id="SVGID_8_" gradientUnits="userSpaceOnUse" x1="1784.45" y1="1060.5867" x2="1784.4501" y2="821.6424">
			<stop  offset="0" style="stop-color:#3A4C95"/>
			<stop  offset="1" style="stop-color:#F16724"/>
		</linearGradient>
		<rect x="1640.4" y="810.2" class="st7" width="288.1" height="269.8"/>
		<linearGradient id="SVGID_9_" gradientUnits="userSpaceOnUse" x1="1498.2999" y1="541.8194" x2="1498.2999" y2="268.5449">
			<stop  offset="0" style="stop-color:#3A4C95"/>
			<stop  offset="1" style="stop-color:#F16724"/>
		</linearGradient>
		<rect x="1356.2" y="270" class="st8" width="284.2" height="269"/>
		<linearGradient id="SVGID_10_" gradientUnits="userSpaceOnUse" x1="1498.2999" y1="790.8443" x2="1498.2999" y2="552.6084">
			<stop  offset="0" style="stop-color:#3A4C95"/>
			<stop  offset="1" style="stop-color:#F16724"/>
		</linearGradient>
		<rect x="1356.2" y="541.2" class="st9" width="284.2" height="269"/>
		<linearGradient id="SVGID_11_" gradientUnits="userSpaceOnUse" x1="1640.35" y1="91.7744" x2="1640.35" y2="1151.0333">
			<stop  offset="0" style="stop-color:#FDD40A"/>
			<stop  offset="1" style="stop-color:#F16724"/>
		</linearGradient>
		<polygon class="st10" points="1924.5,1 1356.2,541.2 1924.5,1081.3 		"/>
		<linearGradient id="SVGID_12_" gradientUnits="userSpaceOnUse" x1="1782.4" y1="364.8017" x2="1782.4" y2="821.646">
			<stop  offset="0" style="stop-color:#3A4C95"/>
			<stop  offset="1" style="stop-color:#F16724"/>
		</linearGradient>
		<rect x="1640.3" y="270" class="st11" width="284.2" height="540.2"/>
		<path class="st12" d="M881.2,271.5c148.7,0,269.3,120.6,269.3,269.3s-120.6,269.3-269.3,269.3"/>
		
			<linearGradient id="SVGID_13_" gradientUnits="userSpaceOnUse" x1="1786.4" y1="1598.6593" x2="1786.4" y2="2081.3799" gradientTransform="matrix(1 0 0 -1 0 2380)">
			<stop  offset="0" style="stop-color:#3A4C95"/>
			<stop  offset="1" style="stop-color:#F16724"/>
		</linearGradient>
		<path class="st13" d="M1912,814.2c6.9,0,13.7-0.3,20.5-0.7V271.4c-6.8-0.5-13.6-0.7-20.5-0.7c-150.1-0.1-271.7,121.5-271.7,271.7
			S1762,814.2,1912,814.2z"/>
		<polygon class="st12" points="1072,270 1356.2,270 1356.2,539 		"/>
		<polygon class="st12" points="1356.2,541.2 1356.2,810.2 1072,810.2 		"/>
		<path class="st12" d="M1356.2,1080c0-149-120.8-269.8-269.8-269.8S816.5,931,816.5,1080H1356.2z"/>
		<path class="st12" d="M816.5,0.2L816.5,0.2c0,149,120.8,269.8,269.8,269.8s269.8-120.8,269.8-269.8l0,0L816.5,0.2L816.5,0.2z"/>
		<rect x="611.9" y="271.5" class="st12" width="269.3" height="538.7"/>
		<path class="st1" d="M881.2,810.2c-148.7,0-269.3-120.6-269.3-269.3s120.6-269.4,269.3-269.4"/>
		<rect x="58.4" y="271.5" class="st12" width="269.3" height="538.7"/>
		<path class="st1" d="M58.3,271.5c148.7,0,269.3,120.6,269.3,269.3S207.1,810.2,58.3,810.2"/>
		<polygon class="st12" points="327.7,812.3 611.9,812.3 611.9,1081.3 		"/>
		
			<linearGradient id="SVGID_14_" gradientUnits="userSpaceOnUse" x1="469.8" y1="718" x2="469.8" y2="1030.0007" gradientTransform="matrix(1 0 0 -1 0 1080)">
			<stop  offset="0" style="stop-color:#FDD40A"/>
			<stop  offset="1" style="stop-color:#F16724"/>
		</linearGradient>
		<polygon class="st14" points="611.9,2.3 611.9,271.3 327.7,271.3 		"/>
		<path class="st12" d="M-4.5,278.9v523.9c20.1,4.8,41.2,7.4,62.8,7.4V271.5C36.7,271.5,15.6,274.1-4.5,278.9z"/>
	</g>
</g>
</svg>
