<?xml version="1.0" encoding="utf-8"?>
<!-- Generator: Adobe Illustrator 19.2.0, SVG Export Plug-In . SVG Version: 6.00 Build 0)  -->
<svg version="1.1" id="Layer_1" xmlns="http://www.w3.org/2000/svg" xmlns:xlink="http://www.w3.org/1999/xlink" x="0px" y="0px"
	 viewBox="0 0 1929 1080" style="enable-background:new 0 0 1929 1080;" xml:space="preserve">
<style type="text/css">
	.st0{fill:url(#SVGID_1_);}
	.st1{fill:url(#SVGID_2_);}
	.st2{fill:#58539C;}
	.st3{fill:url(#SVGID_3_);}
	.st4{fill:url(#SVGID_4_);}
	.st5{fill:url(#SVGID_5_);}
	.st6{fill:url(#SVGID_6_);}
	.st7{fill:url(#SVGID_7_);}
	.st8{fill:url(#SVGID_8_);}
	.st9{fill:#544F96;}
	.st10{fill:url(#SVGID_9_);}
	.st11{fill:url(#SVGID_10_);}
	.st12{fill:url(#SVGID_11_);}
</style>
<linearGradient id="SVGID_1_" gradientUnits="userSpaceOnUse" x1="1786.95" y1="1002.8865" x2="1786.9501" y2="372.2737" gradientTransform="matrix(1 0 0 -1 0 1080)">
	<stop  offset="0" style="stop-color:#FDD40A"/>
	<stop  offset="1" style="stop-color:#F16724"/>
</linearGradient>
<rect x="1644.9" y="1" class="st0" width="284.1" height="1080.4"/>
<linearGradient id="SVGID_2_" gradientUnits="userSpaceOnUse" x1="1783.9498" y1="494.9095" x2="1783.9498" y2="119.4791" gradientTransform="matrix(1 0 0 -1 0 1080)">
	<stop  offset="0" style="stop-color:#58539C"/>
	<stop  offset="1" style="stop-color:#F16724"/>
</linearGradient>
<path class="st1" d="M1786.9,392.4L1786.9,392.4c78.5,0,142.1,63.6,142.1,142V1085h-284.1l-6-386.5l6-164
	C1644.9,456,1708.5,392.4,1786.9,392.4z"/>
<rect y="-0.2" class="st2" width="1419.2" height="1081.6"/>
<linearGradient id="SVGID_3_" gradientUnits="userSpaceOnUse" x1="1502.95" y1="189.9753" x2="1502.9501" y2="557.3435" gradientTransform="matrix(1 0 0 -1 0 1080)">
	<stop  offset="0" style="stop-color:#58539C"/>
	<stop  offset="1" style="stop-color:#F16724"/>
</linearGradient>
<rect x="1361" y="164.8" class="st3" width="283.9" height="916.6"/>
<linearGradient id="SVGID_4_" gradientUnits="userSpaceOnUse" x1="1502.7999" y1="572.6204" x2="1502.7999" y2="909.536" gradientTransform="matrix(1 0 0 -1 0 1080)">
	<stop  offset="0" style="stop-color:#58539C"/>
	<stop  offset="1" style="stop-color:#F16724"/>
</linearGradient>
<path class="st4" d="M1360.7,31.6l284.2,1.2v513.3c0,78.5-63.6,142.1-142.1,142.1l0,0c-78.5,0-142.1-63.6-142.1-142.1V31.6z"/>
<linearGradient id="SVGID_5_" gradientUnits="userSpaceOnUse" x1="1780.6495" y1="242.541" x2="1780.6495" y2="-116.0757" gradientTransform="matrix(1 0 0 -1 0 1080)">
	<stop  offset="0" style="stop-color:#58539C"/>
	<stop  offset="1" style="stop-color:#F16724"/>
</linearGradient>
<path class="st5" d="M1632.2,1085h296.1c0.4-7.1,0.8-14.2,0.8-21.4c0-156.8-127.2-284.1-284.2-284.1"/>
<linearGradient id="SVGID_6_" gradientUnits="userSpaceOnUse" x1="1516.7003" y1="720.2543" x2="1516.7003" y2="1116.0482" gradientTransform="matrix(-1 0 0 1 3299.75 -841.1829)">
	<stop  offset="0" style="stop-color:#58539C"/>
	<stop  offset="1" style="stop-color:#F16724"/>
</linearGradient>
<path class="st6" d="M1644.8,305.3c157,0,284.2-127.3,284.2-284.1c0-7.2-0.3-14.3-0.8-21.4h-291.1"/>
<linearGradient id="SVGID_7_" gradientUnits="userSpaceOnUse" x1="1786.9" y1="646.5614" x2="1786.9" y2="410.3751" gradientTransform="matrix(1 0 0 1 0 -71.2817)">
	<stop  offset="0" style="stop-color:#58539C"/>
	<stop  offset="1" style="stop-color:#F16724"/>
</linearGradient>
<circle class="st7" cx="1786.9" cy="540" r="90.8"/>
<linearGradient id="SVGID_8_" gradientUnits="userSpaceOnUse" x1="1502.8" y1="575.2797" x2="1502.8" y2="339.0933" gradientTransform="matrix(1 0 0 -1 0 1080)">
	<stop  offset="0" style="stop-color:#58539C"/>
	<stop  offset="1" style="stop-color:#F16724"/>
</linearGradient>
<circle class="st8" cx="1502.8" cy="540" r="90.8"/>
<path class="st9" d="M788.9,651.1c0,7.2,0.3,14.3,0.8,21.4h-0.8v420.6h283.9V672.5l0.3-305.5C916.1,367,788.9,494.3,788.9,651.1z"/>
<path class="st9" d="M1357.3,651.1c0,7.2-0.3,14.3-0.8,21.4h0.8v420.6h-283.9V672.5l-0.3-305.5
	C1230.2,367,1357.3,494.3,1357.3,651.1z"/>
<path class="st9" d="M504.7,558.8l0.3-305.5V26.2h283.9v227h-0.8c0.5,7.1,0.8,14.2,0.8,21.4C788.9,431.5,661.7,558.7,504.7,558.8z"
	/>
<path class="st9" d="M505.6,558.8l-0.3-305.5V-16H221.5v269.2h0.8c-0.5,7.1-0.8,14.2-0.8,21.4C221.5,431.5,348.6,558.7,505.6,558.8z
	"/>
<circle class="st9" cx="1074" cy="114.3" r="161.3"/>
<path class="st2" d="M788.9,718.5c0-78.5,63.6-142.1,142.1-142.1l0,0c78.5,0,142.1,63.6,142.1,142.1v373.4l-284.2,1.2L788.9,718.5
	L788.9,718.5z"/>
<path class="st9" d="M567.4,934.3c0,7.2-0.3,14.3-0.8,21.4h0.8v137.4H283.5V955.7l-0.3-305.5C440.2,650.2,567.4,777.4,567.4,934.3z"
	/>
<path class="st9" d="M0,575c0-78.5,63.6-142.1,142.1-142.1l0,0c78.5,0,142.1,63.6,142.1,142.1v407.6L0,983.9V575z"/>
<path class="st2" d="M0,934.3c0,7.2,0.3,14.3,0.8,21.4H0v137.4h283.9V955.7l0.3-305.5C127.2,650.2,0,777.4,0,934.3z"/>
<circle class="st9" cx="931" cy="726.7" r="88.1"/>
<circle class="st2" cx="372.3" cy="305.3" r="88.1"/>
<linearGradient id="SVGID_9_" gradientUnits="userSpaceOnUse" x1="1503.1" y1="-125.7495" x2="1503.1" y2="270.0444" gradientTransform="matrix(1 0 0 -1 0 1080)">
	<stop  offset="0" style="stop-color:#58539C"/>
	<stop  offset="1" style="stop-color:#F16724"/>
</linearGradient>
<path class="st10" d="M1645.2,779.5c-157,0-284.2,127.3-284.2,284.1c0,7.2,0.3,14.3,0.8,21.4h283.1"/>
<linearGradient id="SVGID_10_" gradientUnits="userSpaceOnUse" x1="1796.9501" y1="1175.7212" x2="1796.9501" y2="817.1046" gradientTransform="matrix(-1 0 0 1 3299.75 -928.3594)">
	<stop  offset="0" style="stop-color:#58539C"/>
	<stop  offset="1" style="stop-color:#F16724"/>
</linearGradient>
<path class="st11" d="M1644.6-0.2h-283.1c-0.4,7.1-0.8,14.2-0.8,21.4c0,156.8,127.2,284.1,284.2,284.1"/>
<linearGradient id="SVGID_11_" gradientUnits="userSpaceOnUse" x1="646.8" y1="288.6552" x2="646.8" y2="-142.1115">
	<stop  offset="0" style="stop-color:#58539C"/>
	<stop  offset="1" style="stop-color:#F16724"/>
</linearGradient>
<path class="st12" d="M504.7-67.2L788.9-66v242c0,78.5-63.6,142.1-142.1,142.1l0,0c-78.5,0-142.1-63.6-142.1-142.1L504.7-67.2
	L504.7-67.2z"/>
</svg>
