<?xml version="1.0" encoding="utf-8"?>
<!-- Generator: Adobe Illustrator 19.2.0, SVG Export Plug-In . SVG Version: 6.00 Build 0)  -->
<svg version="1.1" id="Layer_1" xmlns="http://www.w3.org/2000/svg" xmlns:xlink="http://www.w3.org/1999/xlink" x="0px" y="0px"
	 viewBox="0 0 1920 1080" style="enable-background:new 0 0 1920 1080;" xml:space="preserve">
<style type="text/css">
	.st0{clip-path:url(#SVGID_2_);}
	.st1{fill:url(#SVGID_3_);}
	.st2{fill:url(#SVGID_4_);}
	.st3{fill:#58539C;}
	.st4{fill:url(#SVGID_5_);}
	.st5{fill:url(#SVGID_6_);}
	.st6{fill:url(#SVGID_7_);}
	.st7{fill:url(#SVGID_8_);}
	.st8{fill:url(#SVGID_9_);}
	.st9{fill:url(#SVGID_10_);}
	.st10{fill:#544F96;}
	.st11{fill:url(#SVGID_11_);}
	.st12{fill:url(#SVGID_12_);}
	.st13{fill:url(#SVGID_13_);}
</style>
<g>
	<defs>
		<rect id="SVGID_1_" width="1920" height="1080"/>
	</defs>
	<clipPath id="SVGID_2_">
		<use xlink:href="#SVGID_1_"  style="overflow:visible;"/>
	</clipPath>
	<g class="st0">
		<linearGradient id="SVGID_3_" gradientUnits="userSpaceOnUse" x1="1779.4497" y1="77.1135" x2="1779.4498" y2="707.7263">
			<stop  offset="0" style="stop-color:#FDD40A"/>
			<stop  offset="1" style="stop-color:#F16724"/>
		</linearGradient>
		<rect x="1637.4" y="1" class="st1" width="284.1" height="1080.4"/>
		<linearGradient id="SVGID_4_" gradientUnits="userSpaceOnUse" x1="1776.4498" y1="585.0905" x2="1776.4498" y2="960.5209">
			<stop  offset="0" style="stop-color:#58539C"/>
			<stop  offset="1" style="stop-color:#F16724"/>
		</linearGradient>
		<path class="st2" d="M1779.4,392.4L1779.4,392.4c78.5,0,142.1,63.6,142.1,142V1085h-284.1l-6-386.5l6-164
			C1637.4,456,1701,392.4,1779.4,392.4z"/>
		<rect x="-7.5" y="-0.2" class="st3" width="1419.2" height="1081.6"/>
		<linearGradient id="SVGID_5_" gradientUnits="userSpaceOnUse" x1="1495.4497" y1="890.0247" x2="1495.4498" y2="522.6565">
			<stop  offset="0" style="stop-color:#58539C"/>
			<stop  offset="1" style="stop-color:#F16724"/>
		</linearGradient>
		<rect x="1353.5" y="164.8" class="st4" width="283.9" height="916.6"/>
		<linearGradient id="SVGID_6_" gradientUnits="userSpaceOnUse" x1="1495.2997" y1="507.3796" x2="1495.2997" y2="170.464">
			<stop  offset="0" style="stop-color:#58539C"/>
			<stop  offset="1" style="stop-color:#F16724"/>
		</linearGradient>
		<path class="st5" d="M1353.2,31.6l284.2,1.2v513.3c0,78.5-63.6,142.1-142.1,142.1l0,0c-78.5,0-142.1-63.6-142.1-142.1V31.6z"/>
		<linearGradient id="SVGID_7_" gradientUnits="userSpaceOnUse" x1="1773.1498" y1="837.459" x2="1773.1498" y2="1196.0757">
			<stop  offset="0" style="stop-color:#58539C"/>
			<stop  offset="1" style="stop-color:#F16724"/>
		</linearGradient>
		<path class="st6" d="M1624.7,1085h296.1c0.4-7.1,0.8-14.2,0.8-21.4c0-156.8-127.2-284.1-284.2-284.1"/>
		
			<linearGradient id="SVGID_8_" gradientUnits="userSpaceOnUse" x1="1525.2002" y1="359.7457" x2="1525.2002" y2="-36.0482" gradientTransform="matrix(-1 0 0 -1 3300.75 238.8171)">
			<stop  offset="0" style="stop-color:#58539C"/>
			<stop  offset="1" style="stop-color:#F16724"/>
		</linearGradient>
		<path class="st7" d="M1637.3,305.3c157,0,284.2-127.3,284.2-284.1c0-7.2-0.3-14.3-0.8-21.4h-291.1"/>
		
			<linearGradient id="SVGID_9_" gradientUnits="userSpaceOnUse" x1="1779.3998" y1="433.4386" x2="1779.3998" y2="669.6249" gradientTransform="matrix(1 0 0 -1 0 1008.7183)">
			<stop  offset="0" style="stop-color:#58539C"/>
			<stop  offset="1" style="stop-color:#F16724"/>
		</linearGradient>
		<circle class="st8" cx="1779.4" cy="540" r="90.8"/>
		<linearGradient id="SVGID_10_" gradientUnits="userSpaceOnUse" x1="1495.2998" y1="504.7203" x2="1495.2998" y2="740.9067">
			<stop  offset="0" style="stop-color:#58539C"/>
			<stop  offset="1" style="stop-color:#F16724"/>
		</linearGradient>
		<circle class="st9" cx="1495.3" cy="540" r="90.8"/>
		<path class="st10" d="M781.4,651.1c0,7.2,0.3,14.3,0.8,21.4h-0.8v420.6h283.9V672.5l0.3-305.5C908.6,367,781.4,494.3,781.4,651.1z
			"/>
		<path class="st10" d="M1349.8,651.1c0,7.2-0.3,14.3-0.8,21.4h0.8v420.6h-283.9V672.5l-0.3-305.5
			C1222.7,367,1349.8,494.3,1349.8,651.1z"/>
		<path class="st10" d="M497.2,558.8l0.3-305.5V26.2h283.9v227h-0.8c0.5,7.1,0.8,14.2,0.8,21.4C781.4,431.5,654.2,558.7,497.2,558.8
			z"/>
		<path class="st10" d="M498.1,558.8l-0.3-305.5V-16H214v269.2h0.8c-0.5,7.1-0.8,14.2-0.8,21.4C214,431.5,341.1,558.7,498.1,558.8z"
			/>
		<circle class="st10" cx="1066.5" cy="114.3" r="161.3"/>
		<path class="st3" d="M781.4,718.5c0-78.5,63.6-142.1,142.1-142.1l0,0c78.5,0,142.1,63.6,142.1,142.1v373.4l-284.2,1.2L781.4,718.5
			L781.4,718.5z"/>
		<path class="st10" d="M559.9,934.3c0,7.2-0.3,14.3-0.8,21.4h0.8v137.4H276V955.7l-0.3-305.5C432.7,650.2,559.9,777.4,559.9,934.3z
			"/>
		<path class="st10" d="M-7.5,575c0-78.5,63.6-142.1,142.1-142.1l0,0c78.5,0,142.1,63.6,142.1,142.1v407.6l-284.2,1.3V575z"/>
		<path class="st3" d="M-7.5,934.3c0,7.2,0.3,14.3,0.8,21.4h-0.8v137.4h283.9V955.7l0.3-305.5C119.7,650.2-7.5,777.4-7.5,934.3z"/>
		<circle class="st10" cx="923.5" cy="726.7" r="88.1"/>
		<circle class="st3" cx="364.8" cy="305.3" r="88.1"/>
		<linearGradient id="SVGID_11_" gradientUnits="userSpaceOnUse" x1="1495.5997" y1="1205.7495" x2="1495.5997" y2="809.9556">
			<stop  offset="0" style="stop-color:#58539C"/>
			<stop  offset="1" style="stop-color:#F16724"/>
		</linearGradient>
		<path class="st11" d="M1637.7,779.5c-157,0-284.2,127.3-284.2,284.1c0,7.2,0.3,14.3,0.8,21.4h283.1"/>
		
			<linearGradient id="SVGID_12_" gradientUnits="userSpaceOnUse" x1="1805.4503" y1="-95.7212" x2="1805.4503" y2="262.8954" gradientTransform="matrix(-1 0 0 -1 3300.75 151.6406)">
			<stop  offset="0" style="stop-color:#58539C"/>
			<stop  offset="1" style="stop-color:#F16724"/>
		</linearGradient>
		<path class="st12" d="M1637.1-0.2H1354c-0.4,7.1-0.8,14.2-0.8,21.4c0,156.8,127.2,284.1,284.2,284.1"/>
		
			<linearGradient id="SVGID_13_" gradientUnits="userSpaceOnUse" x1="639.2998" y1="791.3448" x2="639.2998" y2="1222.1116" gradientTransform="matrix(1 0 0 -1 0 1080)">
			<stop  offset="0" style="stop-color:#58539C"/>
			<stop  offset="1" style="stop-color:#F16724"/>
		</linearGradient>
		<path class="st13" d="M497.2-67.2L781.4-66v242c0,78.5-63.6,142.1-142.1,142.1l0,0c-78.5,0-142.1-63.6-142.1-142.1L497.2-67.2
			L497.2-67.2z"/>
	</g>
</g>
</svg>
